<?xml version="1.0" encoding="UTF-8" standalone="no"?>
<svg
   xmlns:dc="http://purl.org/dc/elements/1.1/"
   xmlns:cc="http://creativecommons.org/ns#"
   xmlns:rdf="http://www.w3.org/1999/02/22-rdf-syntax-ns#"
   xmlns:svg="http://www.w3.org/2000/svg"
   xmlns="http://www.w3.org/2000/svg"
   xmlns:sodipodi="http://sodipodi.sourceforge.net/DTD/sodipodi-0.dtd"
   xmlns:inkscape="http://www.inkscape.org/namespaces/inkscape"
   height="48"
   version="1.1"
   viewBox="0 0 48 48"
   width="48"
   id="svg6"
   sodipodi:docname="color.svg"
   inkscape:version="0.92.2 5c3e80d, 2017-08-06">
  <metadata
     id="metadata12">
    <rdf:RDF>
      <cc:Work
         rdf:about="">
        <dc:format>image/svg+xml</dc:format>
        <dc:type
           rdf:resource="http://purl.org/dc/dcmitype/StillImage" />
        <dc:title></dc:title>
      </cc:Work>
    </rdf:RDF>
  </metadata>
  <defs
     id="defs10" />
  <sodipodi:namedview
     pagecolor="#ffffff"
     bordercolor="#666666"
     borderopacity="1"
     objecttolerance="10"
     gridtolerance="10"
     guidetolerance="10"
     inkscape:pageopacity="0"
     inkscape:pageshadow="2"
     inkscape:window-width="1230"
     inkscape:window-height="808"
     id="namedview8"
     showgrid="false"
     inkscape:zoom="9.8333333"
     inkscape:cx="12"
     inkscape:cy="25.655215"
     inkscape:window-x="134"
     inkscape:window-y="39"
     inkscape:window-maximized="0"
     inkscape:current-layer="svg6" />
  <path
     d="m 38.624,24 c 2.250667,0 4,-1.749333 4,-4 0,-2.250667 -1.749333,-4 -4,-4 -2.250667,0 -4,1.749333 -4,4 0,2.250667 1.749333,4 4,4 z m -8,-10.624 c 2.250667,0 4,-1.749333 4,-4 0,-2.2506667 -1.749333,-4 -4,-4 -2.250667,0 -4,1.7493333 -4,4 0,2.250667 1.749333,4 4,4 z m -13.248,0 c 2.250667,0 4,-1.749333 4,-4 0,-2.2506667 -1.749333,-4 -4,-4 -2.250667,0 -4,1.7493333 -4,4 0,2.250667 1.749333,4 4,4 z M 9.376,24 c 2.250667,0 4,-1.749333 4,-4 0,-2.250667 -1.749333,-4 -4,-4 -2.250667,0 -4,1.749333 -4,4 0,2.250667 1.749333,4 4,4 z M 24,0 c 13.250667,0 24,9.624 24,21.376 0,7.376 -6,13.250667 -13.376,13.250667 H 30 c -2.250667,0 -4,1.749333 -4,4 0,1 0.376,1.874666 1,2.624 C 27.624,42 28,43 28,44 28,46.250667 26.250667,48 24,48 10.749333,48 0,37.250667 0,24 0,10.749333 10.749333,0 24,0 Z"
     id="path4"
     inkscape:connector-curvature="0"
     style="stroke-width:2.66666675" />
</svg>
