<?xml version="1.0" encoding="UTF-8" standalone="no"?>
<svg
   xmlns:dc="http://purl.org/dc/elements/1.1/"
   xmlns:cc="http://creativecommons.org/ns#"
   xmlns:rdf="http://www.w3.org/1999/02/22-rdf-syntax-ns#"
   xmlns:svg="http://www.w3.org/2000/svg"
   xmlns="http://www.w3.org/2000/svg"
   xmlns:sodipodi="http://sodipodi.sourceforge.net/DTD/sodipodi-0.dtd"
   xmlns:inkscape="http://www.inkscape.org/namespaces/inkscape"
   enable-background="new 0 0 512 512"
   height="48"
   id="Layer_3"
   version="1.1"
   viewBox="0 0 48 48"
   width="48"
   xml:space="preserve"
   sodipodi:docname="finder.svg"
   inkscape:export-filename="/Users/dsa/Downloads/g838.png"
   inkscape:export-xdpi="97.629997"
   inkscape:export-ydpi="97.629997"
   inkscape:version="0.92.2 5c3e80d, 2017-08-06"><metadata
     id="metadata21"><rdf:RDF><cc:Work
         rdf:about=""><dc:format>image/svg+xml</dc:format><dc:type
           rdf:resource="http://purl.org/dc/dcmitype/StillImage" /><dc:title></dc:title></cc:Work></rdf:RDF></metadata><defs
     id="defs19" /><sodipodi:namedview
     pagecolor="#ffffff"
     bordercolor="#666666"
     borderopacity="1"
     objecttolerance="10"
     gridtolerance="10"
     guidetolerance="10"
     inkscape:pageopacity="0"
     inkscape:pageshadow="2"
     inkscape:window-width="909"
     inkscape:window-height="822"
     id="namedview17"
     showgrid="false"
     inkscape:zoom="3.6875"
     inkscape:cx="32.542373"
     inkscape:cy="19.932203"
     inkscape:window-x="342"
     inkscape:window-y="5"
     inkscape:window-maximized="0"
     inkscape:current-layer="Layer_3" /><g
     id="g838"
     transform="matrix(0.09601863,0,0,0.09601863,-0.58072066,44.493304)"><path
       style="fill:none;stroke:#000000;stroke-width:10"
       inkscape:connector-curvature="0"
       id="path2"
       d="M 326.53,-444.326" /><path
       inkscape:connector-curvature="0"
       id="path4"
       d="M 488.872,-413.384 H 265.944 c -4.714,5.891 -9.544,12.569 -14.332,20.094 l -25.787,57.734 -15.694,69.232 c -3.452,10.164 -5.371,48.612 -5.371,57.062 l 69.408,5.611 -10.378,104.113 c 44.483,-0.98 88.829,-10.14 130.731,-27.496 1.776,4.289 3.553,8.577 5.329,12.867 -44.044,18.244 -90.69,27.753 -137.45,28.572 l -0.707,7.089 c 0,6.836 -0.745,27.945 -1.633,28.225 l 2.875,16.7 c 0.812,6.953 1.881,13.686 3.248,20.094 h 222.688 c 9.394,0 17.08,-7.687 17.08,-17.08 v -365.737 c 10e-4,-9.394 -7.685,-17.08 -17.079,-17.08 z m -73.107,152.645 h -19.724 v -71.166 h 19.724 z m -155.704,210.458 -0.645,-3.744 c 0.218,2.718 0.435,3.809 0.645,3.744 z" /><rect
       id="rect6"
       y="-331.905"
       x="88.102997"
       width="19.723"
       height="71.166" /><path
       inkscape:connector-curvature="0"
       id="path8"
       d="m 6.048,-396.304 v 365.736 c 0,9.394 7.686,17.08 17.08,17.08 h 243.055 c -1.367,-6.408 -2.437,-13.141 -3.248,-20.094 H 43.419 c -8.575,0 -15.591,-6.913 -15.591,-15.363 v -328.982 c 0,-8.45 7.016,-15.363 15.591,-15.363 h 208.193 c 4.788,-7.524 9.618,-14.203 14.332,-20.094 H 23.128 c -9.394,0 -17.08,7.686 -17.08,17.08 z" /><path
       style="fill:none;stroke:#000000;stroke-width:10"
       inkscape:connector-curvature="0"
       id="path10"
       d="M 326.53,-444.326" /><path
       inkscape:connector-curvature="0"
       id="path12"
       d="m 304.467,-456.232 c -0.59,0.318 -27.148,14.807 -53.57,53.655 -26.432,38.832 -52.574,101.992 -52.555,198.927 v 5.693 h 75.828 v -5.693 l -5.578,-1.135 c -0.018,0.089 -3.382,16.631 -6.746,41.219 -3.364,24.591 -6.735,57.216 -6.737,89.57 0.004,21.944 1.542,43.761 5.786,62.992 2.126,9.616 4.932,18.594 8.623,26.63 3.694,8.031 8.284,15.142 14.035,20.895 l 8.051,-8.051 c -4.563,-4.562 -8.479,-10.502 -11.74,-17.6 -4.896,-10.638 -8.285,-23.836 -10.395,-38.382 -2.117,-14.547 -2.976,-30.434 -2.975,-46.484 -0.002,-31.57 3.312,-63.773 6.632,-88.027 1.66,-12.129 3.32,-22.274 4.563,-29.377 0.622,-3.551 1.139,-6.34 1.499,-8.237 0.181,-0.948 0.321,-1.674 0.417,-2.158 0.048,-0.243 0.085,-0.426 0.109,-0.546 0.024,-0.121 0.034,-0.174 0.034,-0.175 l 1.389,-6.827 h -77.102 v 5.693 h 5.693 c 0.019,-94.903 25.446,-155.528 50.584,-192.523 12.577,-18.494 25.111,-31.077 34.434,-39.006 4.661,-3.964 8.519,-6.763 11.176,-8.551 1.327,-0.894 2.354,-1.536 3.031,-1.943 0.338,-0.204 0.589,-0.349 0.746,-0.438 l 0.163,-0.092 0.027,-0.016 v 0 l -1.36,-2.5 1.357,2.502 0.003,-0.002 -1.36,-2.5 1.357,2.502 v 0 l -2.601,-4.797 2.594,4.801 0.007,-0.004 -2.601,-4.797 2.594,4.801 z" /><path
       inkscape:connector-curvature="0"
       id="path14"
       d="m 131.093,-127.034 c 41.902,17.356 86.249,26.516 130.731,27.496 l 1.391,13.943 c -46.761,-0.819 -93.406,-10.328 -137.451,-28.572 1.777,-4.29 3.552,-8.578 5.329,-12.867 z" /></g></svg>