<?xml version="1.0" encoding="UTF-8" standalone="no"?>
<svg
   xmlns:dc="http://purl.org/dc/elements/1.1/"
   xmlns:cc="http://creativecommons.org/ns#"
   xmlns:rdf="http://www.w3.org/1999/02/22-rdf-syntax-ns#"
   xmlns:svg="http://www.w3.org/2000/svg"
   xmlns="http://www.w3.org/2000/svg"
   xmlns:sodipodi="http://sodipodi.sourceforge.net/DTD/sodipodi-0.dtd"
   xmlns:inkscape="http://www.inkscape.org/namespaces/inkscape"
   id="Layer_1"
   version="1.1"
   viewBox="0 0 48 48"
   xml:space="preserve"
   sodipodi:docname="hilight.svg"
   width="48"
   height="48"
   inkscape:version="0.92.2 5c3e80d, 2017-08-06"><metadata
     id="metadata19"><rdf:RDF><cc:Work
         rdf:about=""><dc:format>image/svg+xml</dc:format><dc:type
           rdf:resource="http://purl.org/dc/dcmitype/StillImage" /><dc:title></dc:title></cc:Work></rdf:RDF></metadata><defs
     id="defs17" /><sodipodi:namedview
     pagecolor="#ffffff"
     bordercolor="#666666"
     borderopacity="1"
     objecttolerance="10"
     gridtolerance="10"
     guidetolerance="10"
     inkscape:pageopacity="0"
     inkscape:pageshadow="2"
     inkscape:window-width="1346"
     inkscape:window-height="891"
     id="namedview15"
     showgrid="false"
     inkscape:zoom="7.8666667"
     inkscape:cx="15"
     inkscape:cy="15"
     inkscape:window-x="206"
     inkscape:window-y="24"
     inkscape:window-maximized="0"
     inkscape:current-layer="Layer_1" /><g
     id="g832"
     transform="matrix(1.9200772,0,0,1.9200772,-4.7408383,-38.422867)"><line
       id="line2"
       y2="41.5"
       y1="44"
       x2="6.5"
       x1="4"
       style="fill:none;stroke:#000000;stroke-width:2;stroke-linecap:round;stroke-miterlimit:10" /><path
       inkscape:connector-curvature="0"
       id="path4"
       d="m 19,34 7.414,-7.414 c 0.781,-0.781 0.781,-2.047 0,-2.828 l -2.172,-2.172 c -0.781,-0.781 -2.047,-0.781 -2.828,0 L 14,29 Z" /><path
       inkscape:connector-curvature="0"
       id="path6"
       d="M 10.761,42.239 17,36 c 0,0 -5,-5 -5,-5 l -6.241,6.241 c -0.497,0.497 -0.854,1.116 -1.036,1.795 l -0.65,2.429 2.595,2.42 2.291,-0.608 c 0.682,-0.182 1.304,-0.54 1.802,-1.038 z" /><path
       inkscape:connector-curvature="0"
       id="path8"
       d="m 25,26 1.379,-1.379 c 0.828,-0.828 0.828,-2.17 0,-2.998 l -0.002,-0.002 c -0.828,-0.828 -2.17,-0.828 -2.998,0 L 22,23 Z" /><circle
       id="circle10"
       r="2"
       cy="42"
       cx="6" /><path
       inkscape:connector-curvature="0"
       id="path12"
       style="fill:none;stroke:#000000;stroke-width:2;stroke-linecap:round;stroke-miterlimit:10"
       d="m 22,23 -1.285,-1.285 c -0.947,-0.947 -2.482,-0.947 -3.429,0 L 17,22 c -1,1 -2.5,3.5 -4,5" /></g></svg>