<?xml version="1.0" encoding="UTF-8" standalone="no"?>
<svg
   xmlns:dc="http://purl.org/dc/elements/1.1/"
   xmlns:cc="http://creativecommons.org/ns#"
   xmlns:rdf="http://www.w3.org/1999/02/22-rdf-syntax-ns#"
   xmlns:svg="http://www.w3.org/2000/svg"
   xmlns="http://www.w3.org/2000/svg"
   xmlns:sodipodi="http://sodipodi.sourceforge.net/DTD/sodipodi-0.dtd"
   xmlns:inkscape="http://www.inkscape.org/namespaces/inkscape"
   height="12"
   id="Capa_1"
   version="1.1"
   viewBox="0 0 16 12"
   width="16"
   xml:space="preserve"
   inkscape:version="0.92.2 5c3e80d, 2017-08-06"
   sodipodi:docname="leaf.svg"><metadata
     id="metadata41"><rdf:RDF><cc:Work
         rdf:about=""><dc:format>image/svg+xml</dc:format><dc:type
           rdf:resource="http://purl.org/dc/dcmitype/StillImage" /><dc:title></dc:title></cc:Work></rdf:RDF></metadata><defs
     id="defs39" /><sodipodi:namedview
     pagecolor="#ffffff"
     bordercolor="#666666"
     borderopacity="1"
     objecttolerance="10"
     gridtolerance="10"
     guidetolerance="10"
     inkscape:pageopacity="0"
     inkscape:pageshadow="2"
     inkscape:window-width="1574"
     inkscape:window-height="893"
     id="namedview37"
     showgrid="false"
     inkscape:zoom="19.679969"
     inkscape:cx="3.3146426"
     inkscape:cy="5.0971096"
     inkscape:window-x="99"
     inkscape:window-y="32"
     inkscape:window-maximized="0"
     inkscape:current-layer="Capa_1" /><g
     id="g3"
     transform="matrix(0.1702151,0,0,0.1621628,-1.2439445e-4,1.8079794e-5)"><path
       d="M 23.603,7.519 C 4.492,18.608 5.589,36.67 6.247,43.353 30.931,14.113 67.853,15.531 67.853,15.531 c 0,0 -52.338,17.953 -67.71,53.954 -1.214,2.842 5.696,6.538 7.273,3.178 4.707,-10.012 11.266,-17.521 11.266,-17.521 9.677,3.601 26.417,7.821 38.282,-0.528 C 72.724,43.523 71.113,18.937 93.611,6.966 98.866,4.171 49.512,-7.516 23.603,7.519 Z"
       id="path5"
       inkscape:connector-curvature="0" /></g><g
     id="g7"
     transform="translate(0,-62)" /><g
     id="g9"
     transform="translate(0,-62)" /><g
     id="g11"
     transform="translate(0,-62)" /><g
     id="g13"
     transform="translate(0,-62)" /><g
     id="g15"
     transform="translate(0,-62)" /><g
     id="g17"
     transform="translate(0,-62)" /><g
     id="g19"
     transform="translate(0,-62)" /><g
     id="g21"
     transform="translate(0,-62)" /><g
     id="g23"
     transform="translate(0,-62)" /><g
     id="g25"
     transform="translate(0,-62)" /><g
     id="g27"
     transform="translate(0,-62)" /><g
     id="g29"
     transform="translate(0,-62)" /><g
     id="g31"
     transform="translate(0,-62)" /><g
     id="g33"
     transform="translate(0,-62)" /><g
     id="g35"
     transform="translate(0,-62)" /></svg>