<?xml version="1.0" encoding="UTF-8" standalone="no"?>
<svg
   xmlns:osb="http://www.openswatchbook.org/uri/2009/osb"
   xmlns:dc="http://purl.org/dc/elements/1.1/"
   xmlns:cc="http://creativecommons.org/ns#"
   xmlns:rdf="http://www.w3.org/1999/02/22-rdf-syntax-ns#"
   xmlns:svg="http://www.w3.org/2000/svg"
   xmlns="http://www.w3.org/2000/svg"
   xmlns:xlink="http://www.w3.org/1999/xlink"
   xmlns:sodipodi="http://sodipodi.sourceforge.net/DTD/sodipodi-0.dtd"
   xmlns:inkscape="http://www.inkscape.org/namespaces/inkscape"
   height="64"
   id="Capa_1"
   version="1.1"
   viewBox="0 0 64 64"
   width="64"
   xml:space="preserve"
   inkscape:version="0.92.2 5c3e80d, 2017-08-06"
   sodipodi:docname="leaf-color.svg"><metadata
     id="metadata41"><rdf:RDF><cc:Work
         rdf:about=""><dc:format>image/svg+xml</dc:format><dc:type
           rdf:resource="http://purl.org/dc/dcmitype/StillImage" /><dc:title></dc:title></cc:Work></rdf:RDF></metadata><defs
     id="defs39"><linearGradient
       inkscape:collect="always"
       id="linearGradient4432"><stop
         style="stop-color:#2ad4ff;stop-opacity:1;"
         offset="0"
         id="stop4434" /><stop
         style="stop-color:#2ad4ff;stop-opacity:0;"
         offset="1"
         id="stop4436" /></linearGradient><linearGradient
       inkscape:collect="always"
       id="linearGradient4360"><stop
         style="stop-color:#6600ff;stop-opacity:1;"
         offset="0"
         id="stop4362" /><stop
         style="stop-color:#6600ff;stop-opacity:0;"
         offset="1"
         id="stop4364" /></linearGradient><linearGradient
       id="linearGradient4214"
       osb:paint="solid"><stop
         style="stop-color:#000000;stop-opacity:1;"
         offset="0"
         id="stop4216" /></linearGradient><linearGradient
       id="linearGradient4208"
       osb:paint="solid"><stop
         style="stop-color:#000000;stop-opacity:1;"
         offset="0"
         id="stop4210" /></linearGradient><linearGradient
       inkscape:collect="always"
       xlink:href="#linearGradient4432"
       id="linearGradient4438"
       x1="-4.7966042"
       y1="37.146362"
       x2="93.999443"
       y2="36.999741"
       gradientUnits="userSpaceOnUse"
       gradientTransform="matrix(0.6408098,0,0,0.83866012,2.6250328e-4,1.939086)" /><linearGradient
       inkscape:collect="always"
       xlink:href="#linearGradient4360"
       id="linearGradient4440"
       x1="63.451057"
       y1="10.548944"
       x2="-7.9928656"
       y2="81.869896"
       gradientUnits="userSpaceOnUse"
       gradientTransform="translate(0,-10)" /></defs><sodipodi:namedview
     pagecolor="#ffffff"
     bordercolor="#666666"
     borderopacity="1"
     objecttolerance="10"
     gridtolerance="10"
     guidetolerance="10"
     inkscape:pageopacity="0"
     inkscape:pageshadow="2"
     inkscape:window-width="1608"
     inkscape:window-height="1006"
     id="namedview37"
     showgrid="false"
     inkscape:zoom="8.1322522"
     inkscape:cx="20.795164"
     inkscape:cy="31.489254"
     inkscape:window-x="77"
     inkscape:window-y="0"
     inkscape:window-maximized="0"
     inkscape:current-layer="Capa_1" /><path
     style="fill:url(#linearGradient4440);fill-opacity:1;stroke:none;stroke-opacity:1"
     d="M 16.070581,6.50264 C 3.0586582,16.093164 3.805562,31.714414 4.2535683,37.494329 21.059927,12.205581 46.198655,13.431963 46.198655,13.431963 c 0,0 -35.634873,15.52698 -46.10105873,46.663103 -0.82656455,2.457955 3.87818083,5.654508 4.95189783,2.74855 3.20481,-8.65906 7.6705729,-15.153355 7.6705729,-15.153355 6.588687,3.11439 17.986289,6.764135 26.064699,-0.456652 C 49.515125,37.641357 48.418259,16.377705 63.736257,6.024368 67.314179,3.607061 33.710995,-6.5006538 16.070581,6.50264 Z"
     id="path4262"
     inkscape:connector-curvature="0" /><path
     inkscape:connector-curvature="0"
     id="path5"
     d="M 15.125297,8.244972 C 2.8787801,17.544873 3.5817485,32.692753 4.0034014,38.297519 19.821151,13.775096 43.48113,14.964316 43.48113,14.964316 c 0,0 -33.538703,15.056466 -43.3892317,45.249068 -0.77794308,2.383473 3.6500526,5.48316 4.6606096,2.665263 3.0162918,-8.396666 7.2193641,-14.694165 7.2193641,-14.694165 6.201116,3.020016 16.928272,6.559162 24.53148,-0.442812 C 46.602515,38.44009 45.57017,17.820792 59.987107,7.781192 63.354566,5.437138 31.728037,-4.3642831 15.125297,8.244972 Z"
     style="fill:url(#linearGradient4438);fill-opacity:1;stroke:none;stroke-opacity:1" /><g
     id="g7"
     transform="translate(0,-10)" /><g
     id="g9"
     transform="translate(0,-10)" /><g
     id="g11"
     transform="translate(0,-10)" /><g
     id="g13"
     transform="translate(0,-10)" /><g
     id="g15"
     transform="translate(0,-10)" /><g
     id="g17"
     transform="translate(0,-10)" /><g
     id="g19"
     transform="translate(0,-10)" /><g
     id="g21"
     transform="translate(0,-10)" /><g
     id="g23"
     transform="translate(0,-10)" /><g
     id="g25"
     transform="translate(0,-10)" /><g
     id="g27"
     transform="translate(0,-10)" /><g
     id="g29"
     transform="translate(0,-10)" /><g
     id="g31"
     transform="translate(0,-10)" /><g
     id="g33"
     transform="translate(0,-10)" /><g
     id="g35"
     transform="translate(0,-10)" /></svg>