<?xml version="1.0" encoding="UTF-8" standalone="no"?>
<svg
   xmlns:dc="http://purl.org/dc/elements/1.1/"
   xmlns:cc="http://creativecommons.org/ns#"
   xmlns:rdf="http://www.w3.org/1999/02/22-rdf-syntax-ns#"
   xmlns:svg="http://www.w3.org/2000/svg"
   xmlns="http://www.w3.org/2000/svg"
   xmlns:sodipodi="http://sodipodi.sourceforge.net/DTD/sodipodi-0.dtd"
   xmlns:inkscape="http://www.inkscape.org/namespaces/inkscape"
   height="48"
   version="1.1"
   viewBox="0 0 48 48"
   width="48"
   id="svg12"
   sodipodi:docname="rect.svg"
   inkscape:version="0.92.2 5c3e80d, 2017-08-06">
  <metadata
     id="metadata16">
    <rdf:RDF>
      <cc:Work
         rdf:about="">
        <dc:format>image/svg+xml</dc:format>
        <dc:type
           rdf:resource="http://purl.org/dc/dcmitype/StillImage" />
        <dc:title></dc:title>
      </cc:Work>
    </rdf:RDF>
  </metadata>
  <sodipodi:namedview
     pagecolor="#ffffff"
     bordercolor="#666666"
     borderopacity="1"
     objecttolerance="10"
     gridtolerance="10"
     guidetolerance="10"
     inkscape:pageopacity="0"
     inkscape:pageshadow="2"
     inkscape:window-width="1123"
     inkscape:window-height="888"
     id="namedview14"
     showgrid="false"
     inkscape:zoom="5.3636364"
     inkscape:cx="10.5"
     inkscape:cy="3.5423729"
     inkscape:window-x="296"
     inkscape:window-y="0"
     inkscape:window-maximized="0"
     inkscape:current-layer="svg12" />
  <desc
     id="desc4" />
  <defs
     id="defs6" />
  <g
     id="g827"
     transform="matrix(2.1818182,0,0,2.1818182,1.9090909,-56.727273)">
    <g
       transform="translate(0,26)"
       style="fill:none;fill-rule:evenodd;stroke:none;stroke-width:1"
       id="Page-1">
      <g
         style="fill:#000000"
         transform="translate(-86,-127)"
         id="Core">
        <g
           transform="translate(86.5,127)"
           id="content-copy">
          <path
             inkscape:connector-curvature="0"
             id="Shape"
             d="M 14,0 H 2 C 0.9,0 0,0.9 0,2 V 16 H 2 V 2 h 12 z m 3,4 H 6 C 4.9,4 4,4.9 4,6 v 14 c 0,1.1 0.9,2 2,2 h 11 c 1.1,0 2,-0.9 2,-2 V 6 C 19,4.9 18.1,4 17,4 Z m 0,16 H 6 V 6 h 11 z" />
        </g>
      </g>
    </g>
  </g>
</svg>
